<svg width="179" height="122" viewBox="0 0 179 122" fill="none" xmlns="http://www.w3.org/2000/svg">
<path d="M98.7014 38.308L107.675 61.1312L98.7258 83.236H80.7511L98.7014 38.308Z" fill="white"/>
<path d="M138.473 60.7465L129.318 83.2359L104.853 22.8956L113.983 0.0480347L138.473 60.7465Z" fill="white"/>
<path d="M144.639 0.0539856L135.627 23.0092L159.964 83.2264H177.865L144.639 0.0539856Z" fill="white"/>
<path d="M38.5437 39.5223L47.1235 18.9579L40.3492 3.86835L38.5954 0L36.7898 3.92138L1.13638 83.1717H18.823L32.0715 54.0716H32.0429L38.5437 39.5223Z" fill="white"/>
<path d="M53.5787 33.3361L45.0585 53.987L45.0961 54.0716H45.0239L45.0497 54.0975L44.6539 54.9671L38.1693 70.6852H52.5778L52.8357 71.3049L58.2024 83.1717H75.9509L53.5787 33.3361Z" fill="white"/>
<path d="M0 105.723H178.809V105H0V105.723Z" fill="white"/>
<path d="M9.30691 98.9421H6.90583L6.28089 97.1228H2.97433L2.34723 98.9421H0L3.31884 89.9447H5.98793L9.30691 98.9421ZM5.72398 95.4767L4.6266 92.2776L3.52923 95.4767H5.72398ZM17.0957 98.9421H10.6105V89.9447H12.9372V97.197H17.0957V98.9421ZM25.0061 98.9421H18.4962V89.9447H25.0061V91.6896H20.8229V93.2367H24.709V94.9818H20.8229V97.197H25.0061V98.9421ZM35.132 98.9421H32.8939L29.0799 92.7664V98.9421H26.9512V89.9447H29.7255L33.0032 95.0993V89.9447H35.132V98.9421ZM41.4953 99.1278C40.8249 99.1278 40.2082 99.0288 39.6409 98.8308C39.0737 98.6327 38.5868 98.3377 38.1805 97.9458C37.7722 97.556 37.4565 97.0671 37.2337 96.4813C37.0089 95.8955 36.8976 95.219 36.8976 94.4516C36.8976 93.738 37.0047 93.0902 37.2173 92.5086C37.4318 91.9269 37.7433 91.4277 38.1496 91.0131C38.5415 90.6129 39.0262 90.3035 39.6038 90.0869C40.1834 89.8683 40.8146 89.759 41.5015 89.759C41.879 89.759 42.2215 89.7796 42.5267 89.8229C42.8299 89.8642 43.1125 89.9198 43.3704 89.988C43.6405 90.0662 43.884 90.1508 44.1046 90.2457C44.3254 90.3406 44.5171 90.4272 44.6822 90.5098V92.6921H44.4161C44.3027 92.5952 44.1603 92.4818 43.9891 92.3498C43.818 92.2177 43.6241 92.0877 43.4053 91.9599C43.1847 91.832 42.9433 91.7247 42.6855 91.6361C42.4277 91.5473 42.1513 91.5039 41.8583 91.5039C41.5304 91.5039 41.221 91.5556 40.926 91.6587C40.631 91.7598 40.3588 91.931 40.1092 92.1681C39.8719 92.3992 39.6781 92.7024 39.5316 93.08C39.3852 93.4594 39.311 93.9195 39.311 94.4578C39.311 95.023 39.3914 95.4933 39.5502 95.8728C39.709 96.2502 39.909 96.5494 40.1525 96.766C40.3979 96.9888 40.6723 97.1455 40.9735 97.2403C41.2767 97.3353 41.5757 97.3827 41.8687 97.3827C42.1513 97.3827 42.4318 97.3414 42.7082 97.2569C42.9825 97.1744 43.2383 97.061 43.4735 96.9166C43.6694 96.8011 43.8529 96.6794 44.0222 96.5474C44.1913 96.4153 44.3316 96.3019 44.4409 96.2069H44.6822V98.3563C44.4574 98.4554 44.2408 98.5502 44.0344 98.6389C43.8303 98.7276 43.6137 98.804 43.3868 98.8679C43.0939 98.9524 42.8175 99.0164 42.5596 99.0618C42.3019 99.1052 41.9471 99.1278 41.4953 99.1278ZM54.6906 98.9421H52.2895L51.6645 97.1228H48.358L47.7309 98.9421H45.3836L48.7025 89.9447H51.3716L54.6906 98.9421ZM51.1076 95.4767L50.0102 92.2776L48.9129 95.4767H51.1076ZM61.019 92.6921C61.019 92.4693 60.9736 92.2776 60.8828 92.1188C60.79 91.9578 60.6331 91.832 60.4105 91.7412C60.2557 91.6772 60.0762 91.6381 59.87 91.6236C59.6637 91.6092 59.4224 91.603 59.1481 91.603H58.3208V94.0041H59.0243C59.3893 94.0041 59.6946 93.9855 59.9401 93.9504C60.1877 93.9133 60.3939 93.8328 60.5609 93.7049C60.7198 93.5812 60.8353 93.445 60.9096 93.2944C60.9818 93.1438 61.019 92.9438 61.019 92.6921ZM64.6575 98.9421H61.8193L59.3709 95.6377H58.3208V98.9421H55.9941V89.9447H59.8823C60.4145 89.9447 60.8704 89.9756 61.252 90.0353C61.6356 90.0951 61.9926 90.2272 62.3267 90.4272C62.665 90.6294 62.9352 90.8893 63.1331 91.2091C63.3333 91.5288 63.4323 91.9311 63.4323 92.4136C63.4323 93.0778 63.2797 93.6183 62.9723 94.037C62.665 94.4557 62.2256 94.8043 61.6543 95.0828L64.6575 98.9421ZM96.2586 98.9421H93.9319V92.917L92.2714 96.8258H90.6789L89.0185 92.917V98.9421H86.8278V89.9447H89.5238L91.539 94.4578L93.5461 89.9447H96.2586V98.9421ZM106.863 98.9421H104.462L103.837 97.1228H100.53L99.9033 98.9421H97.5561L100.875 89.9447H103.544L106.863 98.9421ZM103.28 95.4767L102.183 92.2776L101.085 95.4767H103.28ZM113.191 92.6921C113.191 92.4693 113.146 92.2776 113.055 92.1188C112.962 91.9578 112.806 91.832 112.583 91.7412C112.428 91.6772 112.249 91.6381 112.042 91.6236C111.836 91.6092 111.595 91.603 111.321 91.603H110.493V94.0041H111.197C111.562 94.0041 111.867 93.9855 112.113 93.9504C112.36 93.9133 112.566 93.8328 112.733 93.7049C112.892 93.5812 113.008 93.445 113.082 93.2944C113.154 93.1438 113.191 92.9438 113.191 92.6921ZM116.83 98.9421H113.992L111.543 95.6377H110.493V98.9421H108.167V89.9447H112.055C112.587 89.9447 113.043 89.9756 113.424 90.0353C113.808 90.0951 114.165 90.2272 114.499 90.4272C114.837 90.6294 115.108 90.8893 115.306 91.2091C115.506 91.5288 115.605 91.9311 115.605 92.4136C115.605 93.0778 115.452 93.6183 115.145 94.037C114.837 94.4557 114.398 94.8043 113.827 95.0828L116.83 98.9421ZM124.889 91.6896H122.08V98.9421H119.753V91.6896H116.943V89.9447H124.889V91.6896ZM131.147 98.9421H125.875V97.3456H127.348V91.5412H125.875V89.9447H131.147V91.5412H129.675V97.3456H131.147V98.9421ZM141.22 98.9421H138.982L135.168 92.7664V98.9421H133.039V89.9447H135.813L139.091 95.0993V89.9447H141.22V98.9421ZM151.822 98.9421H149.421L148.796 97.1228H145.489L144.862 98.9421H142.515L145.834 89.9447H148.503L151.822 98.9421ZM148.239 95.4767L147.142 92.2776L146.044 95.4767H148.239ZM160.081 98.9421H152.519V97.2465L157.003 91.6896H152.742V89.9447H159.833V91.6649L155.353 97.197H160.081V98.9421ZM168.643 98.9421H161.081V97.2465L165.566 91.6896H161.304V89.9447H168.396V91.6649L163.916 97.197H168.643V98.9421ZM179 94.4455C179 95.879 178.59 97.0177 177.767 97.8612C176.944 98.7049 175.807 99.1278 174.357 99.1278C172.909 99.1278 171.774 98.7049 170.951 97.8612C170.128 97.0177 169.718 95.879 169.718 94.4455C169.718 93.0016 170.128 91.8589 170.951 91.0192C171.774 90.1797 172.909 89.759 174.357 89.759C175.799 89.759 176.933 90.1797 177.76 91.0192C178.587 91.8589 179 93.0016 179 94.4455ZM175.922 96.7247C176.147 96.4504 176.314 96.1287 176.424 95.7553C176.533 95.3819 176.587 94.9446 176.587 94.4393C176.587 93.9008 176.525 93.441 176.399 93.0614C176.275 92.6839 176.11 92.3765 175.91 92.1434C175.704 91.9022 175.467 91.7267 175.198 91.6174C174.93 91.5081 174.652 91.4546 174.363 91.4546C174.068 91.4546 173.792 91.5061 173.532 91.6112C173.27 91.7165 173.033 91.8898 172.814 92.131C172.612 92.358 172.449 92.6674 172.321 93.0655C172.195 93.4615 172.131 93.9215 172.131 94.4455C172.131 94.9818 172.193 95.4396 172.315 95.815C172.439 96.1925 172.602 96.4999 172.802 96.7371C173.004 96.9744 173.239 97.1497 173.509 97.2632C173.779 97.3765 174.064 97.4322 174.363 97.4322C174.66 97.4322 174.945 97.3745 175.215 97.259C175.485 97.1455 175.72 96.966 175.922 96.7247Z" fill="white"/>
<path d="M9.30691 98.9421H6.90583L6.28089 97.1228H2.97433L2.34723 98.9421H0L3.31884 89.9447H5.98793L9.30691 98.9421ZM5.72398 95.4767L4.6266 92.2776L3.52923 95.4767H5.72398ZM17.0957 98.9421H10.6105V89.9447H12.9372V97.197H17.0957V98.9421ZM25.0061 98.9421H18.4962V89.9447H25.0061V91.6896H20.8229V93.2367H24.709V94.9818H20.8229V97.197H25.0061V98.9421ZM35.132 98.9421H32.8939L29.0799 92.7664V98.9421H26.9512V89.9447H29.7255L33.0032 95.0993V89.9447H35.132V98.9421ZM41.4953 99.1278C40.8249 99.1278 40.2082 99.0288 39.6409 98.8308C39.0737 98.6327 38.5868 98.3377 38.1805 97.9458C37.7722 97.556 37.4565 97.0671 37.2337 96.4813C37.0089 95.8955 36.8976 95.219 36.8976 94.4516C36.8976 93.738 37.0047 93.0902 37.2173 92.5086C37.4318 91.9269 37.7433 91.4277 38.1496 91.0131C38.5415 90.6129 39.0262 90.3035 39.6038 90.0869C40.1834 89.8683 40.8146 89.759 41.5015 89.759C41.879 89.759 42.2215 89.7796 42.5267 89.8229C42.8299 89.8642 43.1125 89.9198 43.3704 89.988C43.6405 90.0662 43.884 90.1508 44.1046 90.2457C44.3254 90.3406 44.5171 90.4272 44.6822 90.5098V92.6921H44.4161C44.3027 92.5952 44.1603 92.4818 43.9891 92.3498C43.818 92.2177 43.6241 92.0877 43.4053 91.9599C43.1847 91.832 42.9433 91.7247 42.6855 91.6361C42.4277 91.5473 42.1513 91.5039 41.8583 91.5039C41.5304 91.5039 41.221 91.5556 40.926 91.6587C40.631 91.7598 40.3588 91.931 40.1092 92.1681C39.8719 92.3992 39.6781 92.7024 39.5316 93.08C39.3852 93.4594 39.311 93.9195 39.311 94.4578C39.311 95.023 39.3914 95.4933 39.5502 95.8728C39.709 96.2502 39.909 96.5494 40.1525 96.766C40.3979 96.9888 40.6723 97.1455 40.9735 97.2403C41.2767 97.3353 41.5757 97.3827 41.8687 97.3827C42.1513 97.3827 42.4318 97.3414 42.7082 97.2569C42.9825 97.1744 43.2383 97.061 43.4735 96.9166C43.6694 96.8011 43.8529 96.6794 44.0222 96.5474C44.1913 96.4153 44.3316 96.3019 44.4409 96.2069H44.6822V98.3563C44.4574 98.4554 44.2408 98.5503 44.0345 98.6389C43.8303 98.7276 43.6137 98.804 43.3868 98.8679C43.0939 98.9524 42.8175 99.0164 42.5596 99.0618C42.3019 99.1052 41.9471 99.1278 41.4953 99.1278ZM54.6906 98.9421H52.2895L51.6645 97.1228H48.358L47.7309 98.9421H45.3836L48.7025 89.9447H51.3716L54.6906 98.9421ZM51.1076 95.4767L50.0102 92.2776L48.9129 95.4767H51.1076ZM61.019 92.6921C61.019 92.4693 60.9736 92.2776 60.8828 92.1188C60.79 91.9578 60.6331 91.832 60.4105 91.7412C60.2557 91.6772 60.0762 91.6381 59.87 91.6236C59.6637 91.6092 59.4224 91.603 59.1481 91.603H58.3208V94.0041H59.0243C59.3893 94.0041 59.6946 93.9855 59.9401 93.9504C60.1877 93.9133 60.3939 93.8328 60.5609 93.7049C60.7198 93.5812 60.8353 93.445 60.9096 93.2944C60.9818 93.1438 61.019 92.9438 61.019 92.6921ZM64.6575 98.9421H61.8193L59.3709 95.6377H58.3208V98.9421H55.9941V89.9447H59.8823C60.4145 89.9447 60.8704 89.9756 61.252 90.0353C61.6356 90.0951 61.9926 90.2272 62.3267 90.4272C62.665 90.6294 62.9352 90.8893 63.1331 91.2091C63.3333 91.5288 63.4323 91.9311 63.4323 92.4136C63.4323 93.0778 63.2797 93.6183 62.9723 94.037C62.665 94.4557 62.2256 94.8043 61.6543 95.0828L64.6575 98.9421ZM96.2586 98.9421H93.9319V92.917L92.2714 96.8258H90.6789L89.0185 92.917V98.9421H86.8278V89.9447H89.5238L91.539 94.4578L93.5461 89.9447H96.2586V98.9421ZM106.863 98.9421H104.462L103.837 97.1228H100.53L99.9034 98.9421H97.5561L100.875 89.9447H103.544L106.863 98.9421ZM103.28 95.4767L102.183 92.2776L101.085 95.4767H103.28ZM113.191 92.6921C113.191 92.4693 113.146 92.2776 113.055 92.1188C112.962 91.9578 112.806 91.832 112.583 91.7412C112.428 91.6772 112.249 91.6381 112.042 91.6236C111.836 91.6092 111.595 91.603 111.321 91.603H110.493V94.0041H111.197C111.562 94.0041 111.867 93.9855 112.113 93.9504C112.36 93.9133 112.566 93.8328 112.733 93.7049C112.892 93.5812 113.008 93.445 113.082 93.2944C113.154 93.1438 113.191 92.9438 113.191 92.6921ZM116.83 98.9421H113.992L111.543 95.6377H110.493V98.9421H108.167V89.9447H112.055C112.587 89.9447 113.043 89.9756 113.424 90.0353C113.808 90.0951 114.165 90.2272 114.499 90.4272C114.837 90.6294 115.108 90.8893 115.306 91.2091C115.506 91.5288 115.605 91.9311 115.605 92.4136C115.605 93.0778 115.452 93.6183 115.145 94.037C114.837 94.4557 114.398 94.8043 113.827 95.0828L116.83 98.9421ZM124.889 91.6896H122.08V98.9421H119.753V91.6896H116.943V89.9447H124.889V91.6896ZM131.147 98.9421H125.875V97.3456H127.348V91.5412H125.875V89.9447H131.147V91.5412H129.675V97.3456H131.147V98.9421ZM141.22 98.9421H138.982L135.168 92.7664V98.9421H133.039V89.9447H135.813L139.091 95.0993V89.9447H141.22V98.9421ZM151.822 98.9421H149.421L148.796 97.1228H145.489L144.862 98.9421H142.515L145.834 89.9447H148.503L151.822 98.9421ZM148.239 95.4767L147.142 92.2776L146.044 95.4767H148.239ZM160.081 98.9421H152.519V97.2465L157.003 91.6896H152.742V89.9447H159.833V91.6649L155.353 97.197H160.081V98.9421ZM168.643 98.9421H161.081V97.2465L165.566 91.6896H161.304V89.9447H168.396V91.6649L163.916 97.197H168.643V98.9421ZM179 94.4455C179 95.879 178.59 97.0177 177.767 97.8612C176.944 98.7049 175.807 99.1278 174.357 99.1278C172.909 99.1278 171.774 98.7049 170.951 97.8612C170.128 97.0177 169.718 95.879 169.718 94.4455C169.718 93.0016 170.128 91.8589 170.951 91.0192C171.774 90.1797 172.909 89.759 174.357 89.759C175.799 89.759 176.933 90.1797 177.76 91.0192C178.587 91.8589 179 93.0016 179 94.4455ZM175.922 96.7247C176.147 96.4504 176.314 96.1287 176.424 95.7553C176.533 95.3819 176.587 94.9446 176.587 94.4393C176.587 93.9008 176.525 93.441 176.399 93.0614C176.275 92.6839 176.11 92.3765 175.91 92.1434C175.704 91.9022 175.467 91.7267 175.198 91.6174C174.93 91.5081 174.652 91.4546 174.363 91.4546C174.068 91.4546 173.792 91.5061 173.532 91.6112C173.27 91.7165 173.033 91.8898 172.814 92.131C172.612 92.358 172.449 92.6674 172.321 93.0655C172.195 93.4615 172.131 93.9215 172.131 94.4455C172.131 94.9818 172.193 95.4396 172.315 95.815C172.439 96.1925 172.602 96.4999 172.802 96.7371C173.004 96.9744 173.239 97.1497 173.509 97.2632C173.779 97.3765 174.064 97.4322 174.363 97.4322C174.66 97.4322 174.945 97.3745 175.215 97.259C175.485 97.1455 175.72 96.966 175.922 96.7247Z" fill="white"/>
<path d="M79.7086 89.8673C78.951 89.8673 77.9692 90.134 77.9692 90.9627C77.9692 91.496 78.3941 91.752 78.8058 91.752C79.2837 91.752 79.6954 91.4193 79.6954 90.9786C79.6954 90.7067 79.5397 90.39 79.2547 90.2422C79.2995 90.1498 79.4711 90.1048 79.7244 90.1048C80.7064 90.1048 81.5668 90.7991 81.5668 91.7045C81.5668 92.2456 81.2633 92.7338 80.2048 93.2302C79.0303 93.7633 77.2881 94.1566 76.338 94.476C74.8967 94.9696 74.1524 95.698 74.1524 96.7881C74.1524 98.1026 75.2135 98.6412 76.1135 98.6412C76.9556 98.6412 78.0009 98.1871 78.0009 97.2818C78.0009 96.7723 77.6683 96.4239 77.1561 96.4239C76.6705 96.4239 76.2905 96.7406 76.2905 97.25C76.2905 97.7859 76.7022 97.9944 77.0348 98.0551C76.9714 98.2953 76.3697 98.4036 76.082 98.4036C75.4774 98.4036 74.6275 97.9628 74.6275 97.134C74.6275 96.4529 75.2294 96.0597 76.0212 95.7561C76.4462 95.5951 77.1271 95.3786 77.8452 95.1543C79.2494 95.7192 79.442 96.8885 79.442 97.4534C79.442 99.2588 77.5125 100.351 75.2769 100.351C72.9039 100.351 71.0324 99.1136 71.0324 96.9333C71.0324 95.4553 71.8665 94.695 73.0887 94.3335C73.3447 94.4417 73.8515 94.6819 74.2526 94.6819C74.5113 94.6819 74.6883 94.5737 74.6883 94.381C74.6883 94.1408 74.4348 94.0166 74.0601 94.0166C73.8674 94.0166 73.4397 94.0483 73.0755 94.1091C72.4367 93.5231 72.2677 92.8948 72.2677 92.3089C72.2677 91.0868 73.028 90.4217 74.1076 90.4217C74.7515 90.4217 75.2162 90.6592 75.3085 90.9311C74.8175 90.9786 74.4691 91.3402 74.4691 91.7968C74.4691 92.3089 74.8704 92.594 75.2927 92.594C75.7335 92.594 76.1795 92.2772 76.1795 91.752C76.1795 91.4193 76.0028 90.9944 75.5936 90.6592C75.2637 90.39 74.7542 90.184 73.9492 90.184C72.1807 90.184 71.2701 91.1316 71.2701 92.1611C71.2701 92.9423 71.8033 93.7474 72.8643 94.2041C72.0592 94.4125 69.9397 95.2863 69.9397 97.5854C69.9397 100.019 72.3285 101.523 75.071 101.523C78.1249 101.523 79.9013 99.6548 79.9013 97.7384C79.9013 96.5956 79.413 95.574 78.1698 95.0539C79.0937 94.7689 80.0175 94.468 80.519 94.2278C81.3556 93.8081 82.0209 93.0823 82.0209 92.0054C82.0209 90.6619 81.0073 89.8673 79.7086 89.8673Z" fill="white"/>
<path d="M79.7086 89.8673C78.951 89.8673 77.9692 90.134 77.9692 90.9627C77.9692 91.496 78.3941 91.752 78.8058 91.752C79.2837 91.752 79.6954 91.4193 79.6954 90.9786C79.6954 90.7067 79.5397 90.39 79.2547 90.2422C79.2995 90.1498 79.4711 90.1048 79.7244 90.1048C80.7064 90.1048 81.5668 90.7991 81.5668 91.7045C81.5668 92.2456 81.2633 92.7338 80.2048 93.2302C79.0303 93.7633 77.2881 94.1566 76.338 94.476C74.8967 94.9696 74.1524 95.698 74.1524 96.7881C74.1524 98.1026 75.2135 98.6412 76.1135 98.6412C76.9556 98.6412 78.0009 98.1871 78.0009 97.2818C78.0009 96.7723 77.6683 96.4239 77.1561 96.4239C76.6705 96.4239 76.2905 96.7406 76.2905 97.25C76.2905 97.7859 76.7022 97.9944 77.0348 98.0551C76.9714 98.2953 76.3697 98.4036 76.082 98.4036C75.4774 98.4036 74.6275 97.9628 74.6275 97.134C74.6275 96.4529 75.2294 96.0597 76.0212 95.7561C76.4462 95.5951 77.1271 95.3786 77.8452 95.1543C79.2494 95.7192 79.442 96.8885 79.442 97.4534C79.442 99.2588 77.5125 100.351 75.2769 100.351C72.9039 100.351 71.0324 99.1136 71.0324 96.9333C71.0324 95.4553 71.8665 94.695 73.0887 94.3335C73.3447 94.4417 73.8515 94.6819 74.2526 94.6819C74.5113 94.6819 74.6883 94.5737 74.6883 94.381C74.6883 94.1408 74.4348 94.0166 74.0601 94.0166C73.8674 94.0166 73.4397 94.0483 73.0755 94.1091C72.4367 93.5231 72.2677 92.8948 72.2677 92.3089C72.2677 91.0868 73.028 90.4217 74.1076 90.4217C74.7515 90.4217 75.2162 90.6592 75.3085 90.9311C74.8175 90.9786 74.4691 91.3402 74.4691 91.7968C74.4691 92.3089 74.8704 92.594 75.2927 92.594C75.7335 92.594 76.1795 92.2772 76.1795 91.752C76.1795 91.4193 76.0028 90.9944 75.5936 90.6592C75.2637 90.39 74.7542 90.184 73.9492 90.184C72.1807 90.184 71.2701 91.1316 71.2701 92.1611C71.2701 92.9423 71.8033 93.7474 72.8643 94.2041C72.0592 94.4125 69.9397 95.2863 69.9397 97.5854C69.9397 100.019 72.3285 101.523 75.071 101.523C78.1249 101.523 79.9013 99.6548 79.9013 97.7384C79.9013 96.5956 79.413 95.574 78.1698 95.0539C79.0937 94.7689 80.0175 94.468 80.519 94.2278C81.3556 93.8081 82.0209 93.0823 82.0209 92.0054C82.0209 90.6619 81.0073 89.8673 79.7086 89.8673Z" fill="white"/>
<path d="M16.5218 119H15.357L17.9742 111.727H19.2419L21.8591 119H20.6943L18.6382 113.048H18.5814L16.5218 119ZM16.7171 116.152H20.4955V117.075H16.7171V116.152ZM25.7638 119H23.4094V111.727H25.8383C26.5509 111.727 27.1629 111.873 27.6743 112.164C28.1856 112.453 28.5774 112.868 28.8497 113.411C29.1243 113.95 29.2616 114.598 29.2616 115.353C29.2616 116.111 29.1231 116.762 28.8461 117.306C28.5715 117.851 28.1738 118.27 27.653 118.563C27.1321 118.854 26.5024 119 25.7638 119ZM24.5067 118.041H25.7034C26.2574 118.041 26.7178 117.937 27.0848 117.729C27.4517 117.518 27.7264 117.214 27.9086 116.816C28.0909 116.416 28.1821 115.928 28.1821 115.353C28.1821 114.782 28.0909 114.298 27.9086 113.901C27.7287 113.503 27.46 113.201 27.1025 112.995C26.7451 112.789 26.3012 112.686 25.7709 112.686H24.5067V118.041ZM31.4005 111.727L33.4246 117.651H33.5063L35.5305 111.727H36.7165L34.0993 119H32.8316L30.2144 111.727H31.4005ZM44.2229 115.364C44.2229 116.14 44.0809 116.808 43.7968 117.366C43.5127 117.923 43.1233 118.351 42.6285 118.652C42.136 118.95 41.5761 119.099 40.9488 119.099C40.319 119.099 39.7568 118.95 39.262 118.652C38.7696 118.351 38.3813 117.922 38.0972 117.363C37.8131 116.804 37.6711 116.138 37.6711 115.364C37.6711 114.587 37.8131 113.921 38.0972 113.364C38.3813 112.806 38.7696 112.377 39.262 112.079C39.7568 111.778 40.319 111.628 40.9488 111.628C41.5761 111.628 42.136 111.778 42.6285 112.079C43.1233 112.377 43.5127 112.806 43.7968 113.364C44.0809 113.921 44.2229 114.587 44.2229 115.364ZM43.1363 115.364C43.1363 114.772 43.0404 114.273 42.8486 113.869C42.6592 113.461 42.3988 113.154 42.0674 112.945C41.7383 112.735 41.3654 112.629 40.9488 112.629C40.5297 112.629 40.1557 112.735 39.8266 112.945C39.4975 113.154 39.2371 113.461 39.0454 113.869C38.856 114.273 38.7613 114.772 38.7613 115.364C38.7613 115.955 38.856 116.455 39.0454 116.862C39.2371 117.267 39.4975 117.575 39.8266 117.786C40.1557 117.994 40.5297 118.098 40.9488 118.098C41.3654 118.098 41.7383 117.994 42.0674 117.786C42.3988 117.575 42.6592 117.267 42.8486 116.862C43.0404 116.455 43.1363 115.955 43.1363 115.364ZM51.0129 114.025C50.9442 113.809 50.8519 113.616 50.7359 113.446C50.6222 113.273 50.4861 113.126 50.3275 113.006C50.1689 112.883 49.9878 112.789 49.7842 112.725C49.5829 112.661 49.3616 112.629 49.1201 112.629C48.7106 112.629 48.3412 112.735 48.0122 112.945C47.6831 113.156 47.4227 113.465 47.2309 113.872C47.0415 114.277 46.9468 114.773 46.9468 115.36C46.9468 115.95 47.0427 116.448 47.2345 116.855C47.4262 117.262 47.689 117.571 48.0228 117.782C48.3566 117.993 48.7366 118.098 49.1627 118.098C49.5581 118.098 49.9026 118.018 50.1961 117.857C50.492 117.696 50.7205 117.468 50.8815 117.175C51.0448 116.879 51.1265 116.531 51.1265 116.131L51.4106 116.184H49.3296V115.278H52.1883V116.106C52.1883 116.717 52.0581 117.247 51.7977 117.697C51.5396 118.144 51.1821 118.49 50.7252 118.734C50.2707 118.978 49.7499 119.099 49.1627 119.099C48.5046 119.099 47.9269 118.948 47.4298 118.645C46.935 118.342 46.5491 117.912 46.2721 117.356C45.9951 116.797 45.8566 116.134 45.8566 115.367C45.8566 114.787 45.9371 114.266 46.0981 113.805C46.2591 113.343 46.4852 112.951 46.7764 112.629C47.0699 112.305 47.4144 112.058 47.8097 111.887C48.2075 111.714 48.6419 111.628 49.113 111.628C49.506 111.628 49.8718 111.686 50.2103 111.802C50.5512 111.918 50.8543 112.082 51.1194 112.295C51.3869 112.509 51.6083 112.762 51.7835 113.055C51.9587 113.347 52.077 113.67 52.1386 114.025H51.0129ZM54.471 119H53.3062L55.9234 111.727H57.1911L59.8083 119H58.6436L56.5874 113.048H56.5306L54.471 119ZM54.6663 116.152H58.4447V117.075H54.6663V116.152ZM63.713 119H61.3586V111.727H63.7876C64.5001 111.727 65.1121 111.873 65.6235 112.164C66.1349 112.453 66.5267 112.868 66.7989 113.411C67.0735 113.95 67.2108 114.598 67.2108 115.353C67.2108 116.111 67.0724 116.762 66.7954 117.306C66.5207 117.851 66.123 118.27 65.6022 118.563C65.0814 118.854 64.4516 119 63.713 119ZM62.4559 118.041H63.6526C64.2066 118.041 64.6671 117.937 65.034 117.729C65.401 117.518 65.6756 117.214 65.8579 116.816C66.0402 116.416 66.1313 115.928 66.1313 115.353C66.1313 114.782 66.0402 114.298 65.8579 113.901C65.6779 113.503 65.4092 113.201 65.0518 112.995C64.6943 112.789 64.2504 112.686 63.7201 112.686H62.4559V118.041ZM75.3928 115.364C75.3928 116.14 75.2508 116.808 74.9667 117.366C74.6826 117.923 74.2932 118.351 73.7984 118.652C73.306 118.95 72.7461 119.099 72.1187 119.099C71.489 119.099 70.9267 118.95 70.4319 118.652C69.9395 118.351 69.5512 117.922 69.2671 117.363C68.983 116.804 68.841 116.138 68.841 115.364C68.841 114.587 68.983 113.921 69.2671 113.364C69.5512 112.806 69.9395 112.377 70.4319 112.079C70.9267 111.778 71.489 111.628 72.1187 111.628C72.7461 111.628 73.306 111.778 73.7984 112.079C74.2932 112.377 74.6826 112.806 74.9667 113.364C75.2508 113.921 75.3928 114.587 75.3928 115.364ZM74.3062 115.364C74.3062 114.772 74.2103 114.273 74.0186 113.869C73.8292 113.461 73.5687 113.154 73.2373 112.945C72.9082 112.735 72.5354 112.629 72.1187 112.629C71.6997 112.629 71.3256 112.735 70.9965 112.945C70.6675 113.154 70.407 113.461 70.2153 113.869C70.0259 114.273 69.9312 114.772 69.9312 115.364C69.9312 115.955 70.0259 116.455 70.2153 116.862C70.407 117.267 70.6675 117.575 70.9965 117.786C71.3256 117.994 71.6997 118.098 72.1187 118.098C72.5354 118.098 72.9082 117.994 73.2373 117.786C73.5687 117.575 73.8292 117.267 74.0186 116.862C74.2103 116.455 74.3062 115.955 74.3062 115.364ZM81.2275 113.638C81.1897 113.302 81.0334 113.041 80.7588 112.857C80.4842 112.67 80.1385 112.576 79.7219 112.576C79.4236 112.576 79.1655 112.623 78.9477 112.718C78.7299 112.81 78.5606 112.938 78.4399 113.102C78.3215 113.263 78.2623 113.446 78.2623 113.652C78.2623 113.825 78.3026 113.974 78.3831 114.099C78.4659 114.225 78.5737 114.33 78.7062 114.415C78.8412 114.498 78.9856 114.568 79.1395 114.625C79.2934 114.679 79.4413 114.724 79.5834 114.76L80.2936 114.945C80.5256 115.001 80.7635 115.078 81.0074 115.175C81.2512 115.272 81.4773 115.4 81.6856 115.559C81.894 115.718 82.0621 115.914 82.1899 116.148C82.3201 116.383 82.3852 116.663 82.3852 116.99C82.3852 117.402 82.2787 117.768 82.0656 118.087C81.8549 118.407 81.5483 118.659 81.1459 118.844C80.7458 119.028 80.2616 119.121 79.6934 119.121C79.1489 119.121 78.6778 119.034 78.2801 118.862C77.8824 118.689 77.5711 118.444 77.3461 118.126C77.1212 117.807 76.997 117.428 76.9733 116.99H78.0741C78.0954 117.253 78.1807 117.472 78.3298 117.647C78.4813 117.82 78.6743 117.949 78.9086 118.034C79.1454 118.117 79.4046 118.158 79.6863 118.158C79.9965 118.158 80.2723 118.11 80.5138 118.013C80.7576 117.913 80.9494 117.776 81.089 117.601C81.2287 117.423 81.2986 117.216 81.2986 116.979C81.2986 116.764 81.237 116.588 81.1139 116.45C80.9932 116.313 80.8286 116.199 80.6203 116.109C80.4143 116.019 80.1811 115.94 79.9207 115.871L79.0613 115.637C78.479 115.478 78.0173 115.245 77.6764 114.938C77.3379 114.63 77.1686 114.223 77.1686 113.716C77.1686 113.297 77.2822 112.931 77.5095 112.619C77.7368 112.306 78.0445 112.063 78.4328 111.891C78.8211 111.715 79.259 111.628 79.7467 111.628C80.2391 111.628 80.6736 111.714 81.05 111.887C81.4288 112.06 81.7271 112.298 81.9449 112.601C82.1627 112.902 82.2763 113.247 82.2858 113.638H81.2275ZM88.7314 109.384V121.344H87.7797V109.384H88.7314ZM100.735 115.364C100.735 116.14 100.593 116.808 100.309 117.366C100.024 117.923 99.635 118.351 99.1402 118.652C98.6478 118.95 98.0879 119.099 97.4605 119.099C96.8308 119.099 96.2685 118.95 95.7737 118.652C95.2813 118.351 94.893 117.922 94.6089 117.363C94.3248 116.804 94.1828 116.138 94.1828 115.364C94.1828 114.587 94.3248 113.921 94.6089 113.364C94.893 112.806 95.2813 112.377 95.7737 112.079C96.2685 111.778 96.8308 111.628 97.4605 111.628C98.0879 111.628 98.6478 111.778 99.1402 112.079C99.635 112.377 100.024 112.806 100.309 113.364C100.593 113.921 100.735 114.587 100.735 115.364ZM99.648 115.364C99.648 114.772 99.5521 114.273 99.3604 113.869C99.171 113.461 98.9105 113.154 98.5791 112.945C98.25 112.735 97.8772 112.629 97.4605 112.629C97.0415 112.629 96.6674 112.735 96.3383 112.945C96.0093 113.154 95.7488 113.461 95.5571 113.869C95.3677 114.273 95.273 114.772 95.273 115.364C95.273 115.955 95.3677 116.455 95.5571 116.862C95.7488 117.267 96.0093 117.575 96.3383 117.786C96.6674 117.994 97.0415 118.098 97.4605 118.098C97.8772 118.098 98.25 117.994 98.5791 117.786C98.9105 117.575 99.171 117.267 99.3604 116.862C99.5521 116.455 99.648 115.955 99.648 115.364ZM102.856 119H101.691L104.308 111.727H105.576L108.193 119H107.028L104.972 113.048H104.915L102.856 119ZM103.051 116.152H106.829V117.075H103.051V116.152ZM109.743 119V111.727H112.407C112.923 111.727 113.35 111.812 113.689 111.983C114.027 112.151 114.281 112.379 114.449 112.668C114.617 112.955 114.701 113.278 114.701 113.638C114.701 113.941 114.645 114.196 114.534 114.405C114.423 114.611 114.273 114.777 114.086 114.902C113.902 115.025 113.698 115.115 113.476 115.172V115.243C113.717 115.255 113.953 115.333 114.182 115.477C114.414 115.619 114.606 115.822 114.758 116.085C114.909 116.347 114.985 116.667 114.985 117.043C114.985 117.415 114.897 117.749 114.722 118.045C114.549 118.338 114.282 118.571 113.919 118.744C113.557 118.915 113.094 119 112.531 119H109.743ZM110.841 118.059H112.424C112.95 118.059 113.326 117.957 113.554 117.754C113.781 117.55 113.895 117.295 113.895 116.99C113.895 116.76 113.837 116.55 113.721 116.358C113.605 116.166 113.439 116.013 113.223 115.9C113.01 115.786 112.757 115.729 112.464 115.729H110.841V118.059ZM110.841 114.874H112.311C112.557 114.874 112.778 114.826 112.975 114.732C113.174 114.637 113.331 114.504 113.447 114.334C113.566 114.161 113.625 113.957 113.625 113.723C113.625 113.422 113.519 113.17 113.309 112.967C113.098 112.763 112.775 112.661 112.339 112.661H110.841V114.874ZM119.471 111.386L117.127 120.094H116.179L118.523 111.386H119.471ZM124.925 113.638C124.887 113.302 124.731 113.041 124.456 112.857C124.181 112.67 123.836 112.576 123.419 112.576C123.121 112.576 122.863 112.623 122.645 112.718C122.427 112.81 122.258 112.938 122.137 113.102C122.019 113.263 121.96 113.446 121.96 113.652C121.96 113.825 122 113.974 122.08 114.099C122.163 114.225 122.271 114.33 122.403 114.415C122.538 114.498 122.683 114.568 122.837 114.625C122.991 114.679 123.139 114.724 123.281 114.76L123.991 114.945C124.223 115.001 124.461 115.078 124.705 115.175C124.948 115.272 125.175 115.4 125.383 115.559C125.591 115.718 125.759 115.914 125.887 116.148C126.017 116.383 126.082 116.663 126.082 116.99C126.082 117.402 125.976 117.768 125.763 118.087C125.552 118.407 125.246 118.659 124.843 118.844C124.443 119.028 123.959 119.121 123.391 119.121C122.846 119.121 122.375 119.034 121.977 118.862C121.58 118.689 121.268 118.444 121.043 118.126C120.819 117.807 120.694 117.428 120.671 116.99H121.771C121.793 117.253 121.878 117.472 122.027 117.647C122.179 117.82 122.372 117.949 122.606 118.034C122.843 118.117 123.102 118.158 123.384 118.158C123.694 118.158 123.97 118.11 124.211 118.013C124.455 117.913 124.647 117.776 124.786 117.601C124.926 117.423 124.996 117.216 124.996 116.979C124.996 116.764 124.934 116.588 124.811 116.45C124.69 116.313 124.526 116.199 124.318 116.109C124.112 116.019 123.878 115.94 123.618 115.871L122.759 115.637C122.176 115.478 121.715 115.245 121.374 114.938C121.035 114.63 120.866 114.223 120.866 113.716C120.866 113.297 120.979 112.931 121.207 112.619C121.434 112.306 121.742 112.063 122.13 111.891C122.518 111.715 122.956 111.628 123.444 111.628C123.936 111.628 124.371 111.714 124.747 111.887C125.126 112.06 125.424 112.298 125.642 112.601C125.86 112.902 125.974 113.247 125.983 113.638H124.925ZM133.934 114.092H132.826C132.784 113.856 132.704 113.647 132.588 113.467C132.472 113.287 132.33 113.135 132.162 113.009C131.994 112.884 131.806 112.789 131.598 112.725C131.392 112.661 131.173 112.629 130.941 112.629C130.522 112.629 130.146 112.735 129.815 112.945C129.486 113.156 129.225 113.465 129.034 113.872C128.844 114.279 128.75 114.777 128.75 115.364C128.75 115.955 128.844 116.455 129.034 116.862C129.225 117.269 129.487 117.577 129.818 117.786C130.15 117.994 130.523 118.098 130.937 118.098C131.167 118.098 131.384 118.067 131.59 118.006C131.799 117.942 131.987 117.848 132.155 117.725C132.323 117.602 132.465 117.452 132.581 117.274C132.7 117.094 132.781 116.888 132.826 116.656L133.934 116.66C133.875 117.017 133.76 117.346 133.59 117.647C133.422 117.945 133.205 118.203 132.94 118.421C132.677 118.637 132.376 118.804 132.038 118.922C131.699 119.04 131.33 119.099 130.93 119.099C130.3 119.099 129.739 118.95 129.247 118.652C128.754 118.351 128.366 117.922 128.082 117.363C127.8 116.804 127.659 116.138 127.659 115.364C127.659 114.587 127.801 113.921 128.085 113.364C128.37 112.806 128.758 112.377 129.25 112.079C129.743 111.778 130.303 111.628 130.93 111.628C131.316 111.628 131.676 111.683 132.009 111.795C132.346 111.904 132.648 112.065 132.915 112.278C133.183 112.488 133.404 112.746 133.579 113.052C133.754 113.355 133.873 113.702 133.934 114.092ZM141.195 119.099C140.75 119.099 140.35 119.014 139.995 118.844C139.642 118.671 139.36 118.434 139.149 118.134C138.939 117.833 138.826 117.49 138.812 117.104H139.877C139.903 117.416 140.042 117.673 140.293 117.874C140.544 118.076 140.844 118.176 141.195 118.176C141.474 118.176 141.722 118.112 141.937 117.984C142.155 117.854 142.325 117.675 142.448 117.448C142.574 117.221 142.637 116.962 142.637 116.67C142.637 116.375 142.573 116.111 142.445 115.879C142.317 115.647 142.141 115.464 141.916 115.332C141.693 115.199 141.438 115.132 141.149 115.129C140.929 115.129 140.707 115.167 140.485 115.243C140.262 115.319 140.082 115.418 139.945 115.541L138.94 115.392L139.348 111.727H143.347V112.668H140.261L140.03 114.703H140.073C140.215 114.566 140.403 114.451 140.637 114.359C140.874 114.266 141.127 114.22 141.397 114.22C141.84 114.22 142.234 114.326 142.58 114.536C142.928 114.747 143.201 115.035 143.4 115.399C143.601 115.761 143.701 116.178 143.698 116.649C143.701 117.12 143.594 117.54 143.379 117.91C143.166 118.279 142.87 118.57 142.491 118.783C142.115 118.994 141.683 119.099 141.195 119.099ZM145.741 119L148.915 112.722V112.668H145.243V111.727H150.052V112.7L146.888 119H145.741ZM154.089 119.099C153.644 119.099 153.244 119.014 152.889 118.844C152.536 118.671 152.255 118.434 152.044 118.134C151.833 117.833 151.721 117.49 151.707 117.104H152.772C152.798 117.416 152.936 117.673 153.187 117.874C153.438 118.076 153.739 118.176 154.089 118.176C154.369 118.176 154.616 118.112 154.832 117.984C155.049 117.854 155.22 117.675 155.343 117.448C155.468 117.221 155.531 116.962 155.531 116.67C155.531 116.375 155.467 116.111 155.339 115.879C155.212 115.647 155.035 115.464 154.81 115.332C154.588 115.199 154.332 115.132 154.043 115.129C153.823 115.129 153.602 115.167 153.379 115.243C153.157 115.319 152.977 115.418 152.839 115.541L151.834 115.392L152.243 111.727H156.241V112.668H153.155L152.925 114.703H152.967C153.109 114.566 153.297 114.451 153.532 114.359C153.769 114.266 154.022 114.22 154.292 114.22C154.735 114.22 155.129 114.326 155.474 114.536C155.822 114.747 156.096 115.035 156.295 115.399C156.496 115.761 156.595 116.178 156.593 116.649C156.595 117.12 156.489 117.54 156.273 117.91C156.06 118.279 155.764 118.57 155.386 118.783C155.009 118.994 154.577 119.099 154.089 119.099ZM160.791 119.099C160.345 119.099 159.945 119.014 159.59 118.844C159.238 118.671 158.956 118.434 158.745 118.134C158.534 117.833 158.422 117.49 158.408 117.104H159.473C159.499 117.416 159.638 117.673 159.889 117.874C160.14 118.076 160.44 118.176 160.791 118.176C161.07 118.176 161.317 118.112 161.533 117.984C161.751 117.854 161.921 117.675 162.044 117.448C162.17 117.221 162.232 116.962 162.232 116.67C162.232 116.375 162.168 116.111 162.041 115.879C161.913 115.647 161.736 115.464 161.511 115.332C161.289 115.199 161.033 115.132 160.744 115.129C160.524 115.129 160.303 115.167 160.08 115.243C159.858 115.319 159.678 115.418 159.541 115.541L158.536 115.392L158.944 111.727H162.943V112.668H159.857L159.626 114.703H159.668C159.81 114.566 159.999 114.451 160.233 114.359C160.47 114.266 160.723 114.22 160.993 114.22C161.436 114.22 161.83 114.326 162.176 114.536C162.524 114.747 162.797 115.035 162.996 115.399C163.197 115.761 163.296 116.178 163.294 116.649C163.296 117.12 163.19 117.54 162.975 117.91C162.761 118.279 162.466 118.57 162.087 118.783C161.71 118.994 161.278 119.099 160.791 119.099Z" fill="white"/>
</svg>
