<svg width="148" height="70" viewBox="0 0 148 70" fill="none" xmlns="http://www.w3.org/2000/svg">
<path d="M81.4014 31.9617L88.8882 51.0038L81.4217 69.4466H66.4248L81.4014 31.9617Z" fill="white"/>
<path d="M114.584 50.6828L106.946 69.4465L86.5342 19.1026L94.1519 0.0400391L114.584 50.6828Z" fill="white"/>
<path d="M119.729 0.0450439L112.21 19.1973L132.515 69.4386H147.45L119.729 0.0450439Z" fill="white"/>
<path d="M31.2102 32.9748L38.3686 15.8173L32.7166 3.22749L31.2533 0L29.7468 3.27174L0 69.393H14.7566L25.8103 45.1137H25.7864L31.2102 32.9748Z" fill="white"/>
<path d="M43.7541 27.8135L36.6454 45.0432L36.6767 45.1138H36.6164L36.638 45.1354L36.3077 45.8609L30.8975 58.9751H42.919L43.1341 59.4921L47.6117 69.393H62.4199L43.7541 27.8135Z" fill="white"/>
</svg>
